<svg xmlns="http://www.w3.org/2000/svg" viewBox="0 0 16 16"><path d="M3.5 1.5h6L12.5 4.5v10H3.5z" fill="#F2E6C4" stroke="#7A6A45" stroke-width="0.8"/><path d="M9.5 1.5v3h3" fill="#DDD0A8" stroke="#7A6A45" stroke-width="0.7"/><rect x="4.8" y="5.6" width="6.2" height="0.8" fill="#5A6B8C" opacity="0.75"/><rect x="4.8" y="7.1" width="6.2" height="0.8" fill="#5A6B8C" opacity="0.75"/><rect x="4.8" y="8.6" width="6.2" height="0.8" fill="#5A6B8C" opacity="0.75"/><rect x="4.8" y="10.1" width="6.2" height="0.8" fill="#5A6B8C" opacity="0.75"/><rect x="4.8" y="11.6" width="6.2" height="0.8" fill="#5A6B8C" opacity="0.75"/><path d="M10.2 10.4h4.2a.5.5 0 0 1 .5.5v2.7a.5.5 0 0 1-.5.5h-4.2a.5.5 0 0 1-.5-.5v-2.7a.5.5 0 0 1 .5-.5z" fill="#E8A33D" stroke="#8A5E12" stroke-width="0.6"/><path d="M11.1 10.4V9.1a1.2 1.2 0 0 1 2.4 0v1.3" fill="none" stroke="#8A5E12" stroke-width="0.8"/></svg>
